<svg width="32" height="32" viewBox="0 0 32 32" fill="none" xmlns="http://www.w3.org/2000/svg">
<g clip-path="url(#clip0_9901_824)">
<path d="M16.2137 17.9199L16.2137 17.9198C16.2072 17.6853 16.2817 17.4553 16.4252 17.2691C16.4253 17.269 16.4253 17.269 16.4253 17.269L23.2368 8.42671V2.19554H8.40294V7.93885C8.40294 8.50202 7.94647 8.95872 7.38306 8.95872H1.63975V29.8045H23.2367V20.166L22.1006 21.6408C21.9572 21.8271 21.7539 21.958 21.5252 22.0116L17.5792 22.936L17.5789 22.9361L17.4877 22.5466C17.4409 22.5576 17.3934 22.563 17.3463 22.563C17.2108 22.563 17.0774 22.5185 16.9679 22.4341L16.2137 17.9199ZM16.2137 17.9199L16.3268 21.9715C16.3353 22.2777 16.4811 22.5639 16.7237 22.7509L16.2137 17.9199ZM32.0026 7.1157L32.0025 7.11566L27.241 4.18179L27.1895 3.78512C27.1894 3.78513 27.1892 3.78515 27.1891 3.78516C26.9211 3.82007 26.6779 3.95984 26.5128 4.17402L26.5128 4.17406L25.2766 5.77877V1.17566C25.2766 0.612487 24.8202 0.155786 24.2568 0.155786H7.38306C7.11252 0.155786 6.85326 0.263294 6.662 0.454354L6.66184 0.454506L-0.101267 7.21762C-0.292589 7.40884 -0.4 7.66833 -0.4 7.93879V30.8243C-0.4 31.3875 0.0564711 31.8442 0.619875 31.8442H24.2567C24.8201 31.8442 25.2766 31.3875 25.2766 30.8243V17.5181L32.188 8.54598C32.5318 8.09976 32.4487 7.45944 32.0026 7.1157ZM18.6635 17.7059L27.5063 6.22682L27.9202 6.54564L19.0774 18.0248L18.6635 17.7059ZM18.3126 20.0103L18.9684 20.5156L18.3309 20.6649L18.3126 20.0103ZM3.082 6.91897L6.36319 3.63778V6.91897H3.082ZM29.9498 8.10912L21.1071 19.5883L20.6932 19.2694L29.536 7.79034L29.9498 8.10912Z" fill="#4BB1B1" stroke="#4BB1B1" stroke-width="0.8"/>
<path d="M12.0439 12.5177C12.0439 10.7237 10.5844 9.26416 8.79037 9.26416C6.99637 9.26416 5.53687 10.7237 5.53687 12.5177C5.53687 14.1433 6.73537 15.4943 8.29512 15.7336L8.76368 20.5753C8.79468 20.8958 9.06443 21.1355 9.37993 21.1355C9.39987 21.1355 9.42012 21.1345 9.44037 21.1327C9.78112 21.0997 10.0307 20.7967 9.99762 20.4559L9.53587 15.6841C10.9717 15.3462 12.0439 14.0553 12.0439 12.5177ZM8.79037 14.5315C7.67999 14.5315 6.77662 13.6281 6.77662 12.5177C6.77662 11.4072 7.68005 10.5039 8.79037 10.5039C9.90087 10.5039 10.8042 11.4073 10.8042 12.5177C10.8042 13.6282 9.9008 14.5315 8.79037 14.5315Z" fill="#4BB1B1"/>
<path d="M7.27322 16.9204H3.96729C3.62485 16.9204 3.34741 17.198 3.34741 17.5403C3.34741 17.8826 3.62485 18.1602 3.96729 18.1602H7.27322C7.61566 18.1602 7.8931 17.8826 7.8931 17.5403C7.8931 17.1979 7.61566 16.9204 7.27322 16.9204Z" fill="#4BB1B1"/>
<path d="M14.0077 13.9364C13.7518 13.7089 13.3599 13.732 13.1326 13.9879L10.4879 16.9632C10.2604 17.2191 10.2835 17.6109 10.5394 17.8383C10.6575 17.9432 10.8044 17.9949 10.9509 17.9949C11.1219 17.9949 11.2921 17.9246 11.4144 17.7868L14.0592 14.8114C14.2866 14.5555 14.2636 14.1638 14.0077 13.9364Z" fill="#4BB1B1"/>
<path d="M9.69054 22.0617C9.35779 21.9818 9.02298 22.187 8.94317 22.5197L7.95135 26.6522C7.87142 26.9851 8.07654 27.3197 8.40948 27.3995C8.4581 27.4112 8.50673 27.4168 8.5546 27.4168C8.83473 27.4168 9.08867 27.2257 9.15685 26.9415L10.1487 22.809C10.2285 22.4762 10.0234 22.1415 9.69054 22.0617Z" fill="#4BB1B1"/>
<path d="M15.9632 23.1143L11.5001 20.6348C11.2006 20.4684 10.8235 20.5764 10.6572 20.8756C10.491 21.1749 10.5988 21.5522 10.898 21.7185L15.3611 24.198C15.4564 24.251 15.5597 24.2761 15.6616 24.2761C15.8794 24.2761 16.0907 24.1611 16.204 23.9572C16.3701 23.658 16.2624 23.2806 15.9632 23.1143Z" fill="#4BB1B1"/>
</g>
<defs>
<clipPath id="clip0_9901_824">
<rect width="32" height="32" fill="white"/>
</clipPath>
</defs>
</svg>
