<svg width="24" height="32" viewBox="0 0 24 32" fill="none" xmlns="http://www.w3.org/2000/svg">
<path d="M0.875 6C0.875 8.125 1.9375 9.9375 3.5625 11C1.9375 12.125 0.875 13.9375 0.875 16.0625C0.875 18.125 1.9375 19.9375 3.5625 21.0625C1.9375 22.125 0.875 23.9375 0.875 26.0625C0.875 29.375 3.5625 32 6.875 32C10.1875 32 12.9375 29.3125 12.9375 26V20.4375C14 21.4375 15.4375 22 17 22H17.125C20.4375 22 23.0625 19.3125 23.0625 16.0625C23.0625 13.9375 22 12.125 20.375 11C22 9.9375 23.0625 8.125 23.0625 6C23.0625 2.6875 20.4375 0 17.125 0H6.8125C3.5 0 0.875 2.6875 0.875 6ZM11 12V20.0625H6.8125C4.5625 20.0625 2.8125 18.25 2.8125 16.0625C2.8125 13.8125 4.625 12 6.8125 12H11ZM12.9375 16.0625C12.9375 13.8125 14.75 12 17 12H17.125C19.3125 12 21.125 13.8125 21.125 16.0625C21.125 18.25 19.3125 20.0625 17.125 20.0625H17C14.75 20.0625 12.9375 18.25 12.9375 16.0625ZM6.8125 22H11V26C11 28.25 9.125 30.0625 6.875 30.0625C4.625 30.0625 2.8125 28.25 2.8125 26.0625C2.8125 23.8125 4.5625 22.0625 6.8125 22ZM6.8125 2H11V10.0625H6.8125C4.625 10.0625 2.8125 8.25 2.8125 6C2.8125 3.8125 4.625 2 6.8125 2ZM12.9375 10.0625V2H17.125C19.3125 2 21.125 3.8125 21.125 6C21.125 8.25 19.3125 10.0625 17.125 10.0625H12.9375Z" fill="#4BB1B1"/>
</svg>
