<svg width="32" height="32" viewBox="0 0 32 32" fill="none" xmlns="http://www.w3.org/2000/svg">
<path d="M20.6261 15.0572C20.1053 14.5366 19.2611 14.5366 18.7405 15.0572C18.2197 15.5779 18.2197 16.4222 18.7405 16.9428C19.2611 17.4635 20.1053 17.4635 20.6261 16.9428C21.1467 16.4222 21.1467 15.5779 20.6261 15.0572Z" fill="#4BB1B1"/>
<path d="M21.5687 12.2288C22.0894 11.7081 22.9337 11.7081 23.4543 12.2288C23.975 12.7495 23.975 13.5936 23.4543 14.1144C22.9337 14.6351 22.0894 14.6351 21.5687 14.1144C21.0481 13.5936 21.0481 12.7495 21.5687 12.2288Z" fill="#4BB1B1"/>
<path d="M26.2827 15.0572C25.762 14.5366 24.9179 14.5366 24.3971 15.0572C23.8764 15.5779 23.8764 16.4222 24.3971 16.9428C24.9179 17.4635 25.762 17.4635 26.2827 16.9428C26.8035 16.4222 26.8035 15.5779 26.2827 15.0572Z" fill="#4BB1B1"/>
<path d="M21.5687 17.8856C22.0894 17.365 22.9337 17.365 23.4543 17.8856C23.975 18.4064 23.975 19.2506 23.4543 19.7712C22.9337 20.292 22.0894 20.292 21.5687 19.7712C21.0481 19.2506 21.0481 18.4064 21.5687 17.8856Z" fill="#4BB1B1"/>
<path d="M7.99992 17.3333H5.33325V14.6667H7.99992V12H10.6666V14.6667H13.3333V17.3333H10.6666V20H7.99992V17.3333Z" fill="#4BB1B1"/>
<path fill-rule="evenodd" clip-rule="evenodd" d="M9.33333 6.66663C4.17868 6.66663 0 10.8453 0 16C0 21.1546 4.17868 25.3333 9.33333 25.3333H22.6667C27.8213 25.3333 32 21.1546 32 16C32 10.8453 27.8213 6.66663 22.6667 6.66663H9.33333ZM22.6667 9.33329H9.33333C5.65144 9.33329 2.66667 12.3181 2.66667 16C2.66667 19.6818 5.65144 22.6666 9.33333 22.6666H22.6667C26.3485 22.6666 29.3333 19.6818 29.3333 16C29.3333 12.3181 26.3485 9.33329 22.6667 9.33329Z" fill="#4BB1B1"/>
</svg>
